<?xml version="1.0" encoding="utf-8"?>
<svg width="100" height="100" xmlns="http://www.w3.org/2000/svg">
  <g id="glass" fill="currentColor" fill-rule="evenodd">
    <path d="M8.14 7.5c-.5-4.04.5-6.5.5-6.5h8s1.02 2.46.51 6.5c-.5 4.04-3.63 4.5-3.78 7.5l-.02 6s0 .48.4.65c.42.18 2.83.38 2.83.87s-2.04.48-3.95.48c-1.9 0-3.95 0-3.95-.48 0-.5 2.42-.69 2.83-.87.4-.17.4-.65.4-.65v-6.11c-.21-2.9-3.27-3.4-3.77-7.39z"/>
  </g>
  <g id="pin" fill="currentColor" transform="matrix(0.316603, 0, 0, 0.332345, 5.539409, 4.007686)" style="">
    <path d="M 24.464 44.122 L 23.718 43.003 C 23.158 42.07 9.546 22.398 9.546 14.473 C 9.546 2.989 21.977 -4.188 31.923 1.554 C 36.538 4.218 39.381 9.143 39.381 14.473 C 39.381 22.398 25.769 42.164 25.21 43.003 L 24.464 44.122 Z M 24.464 1.42 C 17.255 1.42 11.411 7.264 11.411 14.473 C 11.411 20.813 21.573 36.476 24.464 40.765 C 27.354 36.476 37.517 20.813 37.517 14.473 C 37.517 7.264 31.673 1.42 24.464 1.42 Z" style="stroke: currentColor; stroke-miterlimit: 1; stroke-width: 2.96694px;"/>
    <path d="M24 23a7 7 0 1 1 0-14 7 7 0 0 1 0 14zm0-12a5 5 0 1 0 0 10 5 5 0 0 0 0-10z" style="stroke-miterlimit: 1; stroke: currentColor; stroke-width: 1.48347px;"/>
  </g>
</svg>