<svg version="1" xmlns="http://www.w3.org/2000/svg" viewBox="0 0 3080 3660">
  <path d="M0 1830V0h3080v3660H0V1830z" fill="none"/>
  <g fill="#f2929f">
    <path d="M1285 3577c-118-45-202-119-253-222-45-92-55-144-50-248 6-119 47-212 133-305 114-123 258-193 500-242 139-29 252-85 330-164 91-92 109-137 110-266 0-123-18-171-91-244-167-168-475-124-576 81-28 57-30 69-25 123 10 90 47 146 122 182 128 63 290-14 272-130-13-76-66-114-59-42 5 51-16 84-62 100-47 15-92-8-113-57-12-31-13-41-1-72 8-20 29-46 48-59 30-20 45-23 97-20 51 3 69 9 99 34 109 88 71 264-71 330-62 29-168 32-232 6-82-33-129-75-164-148-30-61-34-78-34-149 0-74 4-88 38-157 45-92 100-145 202-193 40-19 103-39 147-46 67-11 87-11 155 4 250 54 395 244 381 499-5 75-11 97-46 170-87 180-281 308-543 359-182 35-282 81-377 176-69 68-95 117-111 208-21 118 19 238 106 315 77 68 121 83 243 84 93 1 111-2 160-25 146-69 213-192 180-330-31-127-199-197-321-133-67 34-93 151-44 199 31 32 50 33 34 4-16-31-2-85 28-109 59-46 139-10 150 68 5 40 3 45-36 82-36 34-48 40-87 40-203 0-249-263-62-354 73-36 140-43 213-22 103 31 157 75 199 166 21 45 26 70 26 139 0 74-4 91-32 148-39 80-123 159-215 204-64 31-76 33-188 36-106 3-127 0-180-20z"/>
    <path d="M817 2600c-75-13-156-58-218-119-64-65-95-124-111-211-27-143 51-299 181-362 63-31 184-37 249-13 59 23 128 86 143 132 41 125-36 253-153 253-112 0-178-91-113-155 51-52 145-16 145 55 0 16 4 30 10 30 17 0 40-58 40-101 0-83-102-143-206-120-73 17-118 51-150 116-50 104-20 226 77 309 122 104 324 92 494-29l62-44 27 28c14 15 26 32 26 38 0 17-86 89-146 123-111 64-246 90-357 70zm-317-876c-97-35-164-99-212-200-107-228 36-513 300-594 120-37 295-24 427 31 189 81 355 265 426 474 15 44 30 103 34 130l6 50-40 16c-43 18-51 16-51-15 0-42-59-187-106-263-84-135-206-237-336-283-235-82-450-15-540 167-79 161-9 343 151 389 194 57 373-133 245-261-19-19-38-35-43-35-4 0-6 24-3 53 4 50 2 55-28 80-64 54-146 23-157-61-5-39-3-45 30-76 46-43 114-63 166-48 95 29 151 103 151 200 0 99-65 188-169 235-62 28-189 33-251 11z"/>
    <path d="M1885 1536c-113-36-186-108-225-226-26-77-24-192 5-275 29-86 83-191 125-244l41-51-45-20c-181-77-399-98-791-75-232 14-385 11-475-8C279 584 89 388 73 175c-5-65-4-75 10-75 11 0 20 15 28 43 45 169 199 320 385 374 51 15 112 17 474 18 344 0 431 3 510 18 133 23 229 52 322 94 53 25 84 34 92 27 174-132 348-194 539-194 287 1 502 145 562 375 17 69 19 121 5 130s-40-13-40-33c0-8-16-48-36-89-65-137-192-234-342-264-99-19-260-7-352 26-257 93-450 333-450 562 0 110 51 188 143 219 127 42 226-51 235-222 6-104-13-164-78-249l-48-63 25-24 25-23 58 62c123 130 167 295 120 444-29 92-76 150-151 188-69 35-149 41-224 17z"/>
  </g>
  <g fill="#f59b21">
    <path d="M1325 3586c-229-57-374-282-337-524 37-239 244-418 559-482 188-39 297-88 394-177 88-82 122-157 122-273 0-71-4-95-27-145-35-77-93-136-170-172-54-25-72-28-161-28-94 0-104 2-168 34-149 75-216 228-156 357 50 105 195 154 299 102 81-41 107-143 51-199-16-16-35-29-42-29-10 0-10 3-1 12 22 22 14 86-13 113-34 35-96 35-130 0-30-29-34-92-9-131 54-81 203-69 263 21 32 48 33 132 3 191-75 146-320 163-450 31-62-63-85-125-85-224 0-72 4-90 31-145 81-165 244-255 449-246 88 3 106 7 174 40 141 66 236 191 262 343 15 88-3 209-42 290-82 166-289 305-512 345-156 28-281 79-379 156-129 102-177 251-131 404 19 62 31 81 84 135 84 85 146 108 272 103 71-3 102-9 146-29 74-35 134-91 166-153 21-42 24-60 21-122-4-93-37-144-118-187-48-25-63-28-122-25-57 3-73 8-105 34-68 55-80 138-28 190 34 34 45 31 34-11-24-86 74-150 144-95 50 40 40 128-19 166-40 27-134 25-171-2-50-37-73-81-73-140 0-65 10-92 52-140 47-54 102-75 194-75 90 0 158 27 217 87 68 68 82 105 82 219 0 89-3 106-27 150-98 188-326 285-543 231z"/>
    <path d="M817 2600c-75-13-156-58-218-119-64-65-95-124-111-211-27-143 51-299 181-362 63-31 184-37 249-13 59 23 128 86 143 132 41 125-36 253-153 253-112 0-178-91-113-155 51-52 145-16 145 55 0 16 4 30 10 30 17 0 40-58 40-101 0-83-102-143-206-120-73 17-118 51-150 116-50 104-20 226 77 309 122 104 324 92 494-29l62-44 27 28c14 15 26 32 26 38 0 17-86 89-146 123-111 64-246 90-357 70zm1068-1064c-113-36-186-108-225-226-26-77-24-192 5-275 29-86 83-191 125-244l41-51-45-20c-181-77-399-98-791-75-232 14-385 11-475-8C279 584 89 388 73 175c-5-65-4-75 10-75 11 0 20 15 28 43 45 169 199 320 385 374 51 15 112 17 474 18 344 0 431 3 510 18 133 23 229 52 322 94 53 25 84 34 92 27 174-132 348-194 539-194 287 1 502 145 562 375 17 69 19 121 5 130s-40-13-40-33c0-8-16-48-36-89-65-137-192-234-342-264-99-19-260-7-352 26-257 93-450 333-450 562 0 110 51 188 143 219 127 42 226-51 235-222 6-104-13-164-78-249l-48-63 25-24 25-23 58 62c123 130 167 295 120 444-29 92-76 150-151 188-69 35-149 41-224 17z"/>
  </g>
  <path d="M1325 3586c-229-57-374-282-337-524 37-239 244-418 559-482 188-39 297-88 394-177 88-82 122-157 122-273 0-71-4-95-27-145-35-77-93-136-170-172-54-25-72-28-161-28-94 0-104 2-168 34-149 75-216 228-156 357 50 105 195 154 299 102 81-41 107-143 51-199-16-16-35-29-42-29-10 0-10 3-1 12 22 22 14 86-13 113-34 35-96 35-130 0-30-29-34-92-9-131 54-81 203-69 263 21 32 48 33 132 3 191-75 146-320 163-450 31-62-63-85-125-85-224 0-72 4-90 31-145 81-165 244-255 449-246 88 3 106 7 174 40 141 66 236 191 262 343 15 88-3 209-42 290-82 166-289 305-512 345-156 28-281 79-379 156-129 102-177 251-131 404 19 62 31 81 84 135 84 85 146 108 272 103 71-3 102-9 146-29 74-35 134-91 166-153 21-42 24-60 21-122-4-93-37-144-118-187-48-25-63-28-122-25-57 3-73 8-105 34-68 55-80 138-28 190 34 34 45 31 34-11-24-86 74-150 144-95 50 40 40 128-19 166-40 27-134 25-171-2-50-37-73-81-73-140 0-65 10-92 52-140 47-54 102-75 194-75 90 0 158 27 217 87 68 68 82 105 82 219 0 89-3 106-27 150-98 188-326 285-543 231zm560-2050c-113-36-186-108-225-226-26-77-24-192 5-275 29-86 83-191 125-244l41-51-45-20c-181-77-399-98-791-75-232 14-385 11-475-8C279 584 89 388 73 175c-5-65-4-75 10-75 11 0 20 15 28 43 45 169 199 320 385 374 51 15 112 17 474 18 344 0 431 3 510 18 133 23 229 52 322 94 53 25 84 34 92 27 174-132 348-194 539-194 287 1 502 145 562 375 17 69 19 121 5 130s-40-13-40-33c0-8-16-48-36-89-65-137-192-234-342-264-99-19-260-7-352 26-257 93-450 333-450 562 0 110 51 188 143 219 127 42 226-51 235-222 6-104-13-164-78-249l-48-63 25-24 25-23 58 62c123 130 167 295 120 444-29 92-76 150-151 188-69 35-149 41-224 17z" fill="#72c64f"/>
  <path d="M1325 3586c-229-57-374-282-337-524 37-239 244-418 559-482 188-39 297-88 394-177 88-82 122-157 122-273 0-71-4-95-27-145-35-77-93-136-170-172-54-25-72-28-161-28-94 0-104 2-168 34-149 75-216 228-156 357 50 105 195 154 299 102 81-41 107-143 51-199-16-16-35-29-42-29-10 0-10 3-1 12 22 22 14 86-13 113-34 35-96 35-130 0-30-29-34-92-9-131 54-81 203-69 263 21 32 48 33 132 3 191-75 146-320 163-450 31-62-63-85-125-85-224 0-72 4-90 31-145 81-165 244-255 449-246 88 3 106 7 174 40 141 66 236 191 262 343 15 88-3 209-42 290-82 166-289 305-512 345-156 28-281 79-379 156-129 102-177 251-131 404 19 62 31 81 84 135 84 85 146 108 272 103 71-3 102-9 146-29 74-35 134-91 166-153 21-42 24-60 21-122-4-93-37-144-118-187-48-25-63-28-122-25-57 3-73 8-105 34-68 55-80 138-28 190 34 34 45 31 34-11-24-86 74-150 144-95 50 40 40 128-19 166-40 27-134 25-171-2-50-37-73-81-73-140 0-65 10-92 52-140 47-54 102-75 194-75 90 0 158 27 217 87 68 68 82 105 82 219 0 89-3 106-27 150-98 188-326 285-543 231z" fill="#e92c43"/>
</svg>
