<svg version="1" xmlns="http://www.w3.org/2000/svg" viewBox="0 0 16000 10800"><path d="M8410 8082c-25-9-46-20-48-24-2-5-10-8-18-8s-14-4-14-10c0-5-6-10-14-10-23 0-75-71-91-124-12-40-15-120-15-398v-349l83 3 82 3 5 341 5 341 29 37c38 50 82 68 165 65 77-3 120-23 187-89l44-43v-657h170v930h-170v-102l-36 32c-62 54-117 73-224 76-70 2-107-2-140-14zm1589 2c-60-18-132-82-154-136-10-25-17-69-17-106 1-113 62-202 181-262 50-25 199-65 284-75l57-7v-68c0-59-4-73-25-99-34-39-82-54-163-49-79 4-138 30-217 94-29 24-56 44-60 44-3 0-4-39-3-87l3-88 61-32c82-44 162-63 261-63 134 0 235 47 284 133 24 42 24 46 27 355 2 239 6 312 15 312 7 0 30-9 52-20 48-24 55-17 55 62 0 56-1 58-33 72-100 41-195 38-232-8-18-22-22-23-40-10-65 48-240 68-336 38zm299-159l52-28v-279l-32 7c-212 40-294 91-313 192-8 46 20 100 66 125 51 29 158 21 227-17zm605 160c-29-8-75-26-103-40l-50-25v-70c0-49 4-72 13-76 7-2 39 11 71 30 94 56 219 73 286 37 45-23 80-75 80-116 0-60-45-97-182-149-140-52-217-109-250-184-32-71-17-171 31-224 12-12 21-25 21-29 0-3 34-24 75-45 67-34 86-38 165-42 94-5 152 5 232 40l48 20v74c0 41-4 74-10 74-5 0-26-11-46-25-74-51-199-70-267-41-43 18-87 71-87 104 0 69 28 93 170 147 118 45 163 69 210 111 95 86 90 253-12 355-58 58-129 83-243 86-65 2-118-2-152-12zm-3963-616v-621l318 5c313 4 346 7 427 42l63 25c17 7 32 16 32 21s7 9 15 9 24 9 35 20 24 20 28 20 30 23 57 50c27 28 46 50 43 50-4 0 4 12 17 26 14 15 25 31 25 35 0 5 11 32 24 61a698 698 0 0 1 44 128c10 32 5 237-7 280-17 60-71 184-82 188-5 2-7 7-4 12 5 9-115 143-122 136-3-2-13 4-24 15-10 10-26 19-34 19s-15 4-15 9-15 14-32 21l-66 27c-62 27-239 43-494 43h-248v-621zm640 446a486 486 0 0 0 279-250c31-62 34-77 38-179 4-91 1-122-15-173-23-74-66-141-109-174-17-13-29-27-26-32 2-4 1-7-4-6-15 4-43-13-37-22 3-5 2-8-3-7-12 4-93-34-93-43 0-5-7-6-15-3-8 4-15 2-15-2 0-5-10-10-22-10l-123-12c-55-7-148-12-207-12h-108v952l203-5c153-3 215-9 257-22zm1590-290v-465h170v70c0 40 4 70 10 70s10-4 10-8c0-5 19-28 42-51 109-107 247-122 364-38l42 29-31 74c-17 41-34 74-38 74-3 0-23-16-43-35-93-88-206-43-320 126l-36 54v565h-170v-465zm1340-722c-239-32-399-147-400-289 0-50 21-112 52-155a493 493 0 0 1 218-135c0-2-20-23-44-48-35-34-46-54-51-88-13-89 30-169 113-210l49-25-47-21a362 362 0 0 1-95-588c92-93 226-141 360-129 38 3 168 8 288 11l217 5v159h-161l25 33c41 54 60 128 53 214-7 95-40 164-107 227-63 59-142 96-301 142-171 49-219 82-205 140 11 42 88 70 260 95 102 14 218 45 268 70a302 302 0 0 1 171 265c-1 143-106 248-305 304-73 21-279 34-358 23zm288-167c65-18 134-57 156-90 30-47 21-85-32-136a471 471 0 0 0-366-102c-163 33-279 146-235 229 20 36 79 73 152 94 77 22 250 25 325 5zm-65-916c93-35 157-120 157-210 0-62-21-114-63-158a252 252 0 0 0-409 57c-45 88-33 169 34 246 69 78 178 104 281 65zm-2115 570c-32-5-67-14-78-20s-20-8-20-5-10 0-22-7c-13-6-29-13-35-14-20-3-83-45-83-55 0-5-6-9-14-9-25 0-113-107-150-182-20-40-43-105-51-143-16-77-20-255-6-255 5 0 7-9 4-19-12-47 66-233 114-271 13-10 23-23 23-29s12-18 28-28c15-10 31-23 35-30s15-13 22-13c8 0 15-3 15-8 0-4 15-15 33-24 141-70 275-86 420-48 92 23 151 56 211 116 86 88 133 208 143 367l6 97h-426c-400 0-427 1-427 18 0 9 7 45 15 80 64 272 306 382 605 273 42-16 101-45 131-65s57-36 61-36c5 0 8 39 8 88v87l-53 32c-60 36-138 69-212 89-64 18-224 26-297 14zm387-777a300 300 0 0 0-191-223c-97-36-211-19-306 46a419 419 0 0 0-122 172l-15 42h641l-7-37zm2673 777a543 543 0 0 1-453-428c-19-89-19-252 0-327a538 538 0 0 1 391-405c246-63 492 39 583 243 37 82 50 138 58 247l6 90h-843v23c0 38 28 134 55 187 68 134 185 201 350 201 94 0 172-19 255-61 33-17 63-30 67-31 5 0 12-7 16-15 5-8 12-12 18-9 5 4 9 1 9-4 0-6 9-11 20-11 18 0 20 7 20 78 0 63-4 82-17 94-30 26-154 84-228 107-79 25-232 35-307 21zm382-755c0-38-44-143-73-173-111-116-319-117-448-4-34 29-88 119-104 170l-6 22h315c277 0 316-2 316-15zm1435 752c-155-41-246-151-247-296-1-98 23-160 89-232 88-95 245-158 478-190l85-12v-75c0-89-18-134-69-168-116-76-293-42-446 85-33 28-63 51-67 51-5 0-8-45-8-99v-100l33-25c87-67 243-116 367-116 176 0 304 70 364 199 20 44 21 64 24 430l3 383 31-6c17-3 45-13 61-21 17-8 34-15 39-15 4 0 8 36 8 79v80l-57 21c-68 25-138 35-186 26-35-6-80-40-89-66-3-11-12-9-40 8-95 59-268 86-373 59zm265-169c19-5 59-24 88-41l52-31v-173c0-132-3-173-12-173-32 0-199 40-250 59-70 27-152 99-168 147s-8 125 16 157c50 67 157 89 274 55zm1015 173c-256-42-432-198-480-428-82-388 169-731 550-750 116-6 212 11 305 53l60 27v88c0 59-4 89-11 89-6 0-44-16-83-36a431 431 0 0 0-401-5 433 433 0 0 0-216 449 401 401 0 0 0 341 342c95 17 218-3 343-55 15-6 17 1 17 84 0 91 0 92-27 102a974 974 0 0 1-398 40zm-7825-781v-770h270c281 0 326 5 423 48 36 16 171 132 153 132-3 0 3 9 14 20 52 52 65 236 23 331-23 52-90 132-104 123-5-3-9 0-9 6s-15 17-32 25l-33 13 28 11c16 6 34 11 40 11 7 0 21 7 31 15s22 12 26 10 17 5 28 16c12 11 22 17 22 13s21 14 48 41c26 27 46 52 45 57-2 4 1 8 7 8 13 0 40 54 46 93l9 54 9 50c5 24 1 60-17 153-8 39-20 70-27 70-4 0-10 10-14 23-6 26-77 107-94 107-7 0-12 5-12 10 0 6-7 10-15 10s-15 4-15 9c0 14-90 49-166 65-51 10-150 15-376 15l-308 2v-771zm652 586c183-68 241-303 108-437-79-79-130-93-357-97l-193-4v564l198-4c155-4 207-8 244-22zm-99-734c111-55 163-155 138-268-17-75-58-126-128-160-54-27-67-29-205-32l-148-4v505l139-5c132-4 142-6 204-36zm1887 343v-575h200v201l51-61c116-140 236-186 375-145 53 15 143 70 151 91 7 18-67 184-82 184-7 0-15-7-18-15-4-8-24-28-47-44-118-85-249-25-379 173l-51 79v687h-200v-575zm3050 0v-575h200v194l69-75c38-42 92-87 122-104 48-27 63-30 139-30 72 0 93 4 140 27 30 15 68 38 84 52l29 24-38 91c-21 50-42 91-46 91-5 0-26-17-48-37-74-73-159-80-248-20a728 728 0 0 0-174 202l-29 50v685h-200v-575zM9092 4474c-29-7-66-21-82-29-29-15-30-19-30-80 0-36 4-65 9-65s33 15 62 33c47 29 60 32 130 32 67 0 81-3 102-23 33-31 41-66 23-101-12-22-37-38-116-71-119-50-157-74-186-117-91-135 33-303 224-303 79 0 134 9 127 20-3 4 1 8 8 7 32-1 48 4 42 13-3 6 1 7 9 4 14-5 16 5 16 66 0 39-3 70-7 68l-58-29c-93-49-183-46-224 8-49 61-18 101 125 158 111 44 168 89 184 143 52 190-132 327-358 266zm1108 2c-192-52-291-216-255-420 13-74 32-126 47-126 4 0 8-6 8-14 0-26 90-107 148-134 50-24 69-27 162-27 58 0 115 4 128 8l22 8v-241h140v950h-70c-38 0-70-4-70-9s-21-3-47 5c-56 17-152 17-213 0zm225-120l35-15v-450l-52-16c-65-19-81-19-149 1a262 262 0 0 0-158 344c27 60 64 98 124 126 59 28 147 32 200 10zm534 121a340 340 0 0 1-249-298c-13-89 21-269 51-269 5 0 9-4 9-10 0-13 84-98 101-102 7-2 19-8 27-15 36-34 178-44 266-18 73 21 150 94 177 166 10 30 22 87 26 127l6 72h-262c-294 0-274-7-241 83 34 90 125 157 214 157 53 0 148-29 199-60 27-17 53-30 58-30s9 27 9 60c0 57-2 61-32 80-96 59-261 85-359 57zm271-473c0-29-43-94-76-115-68-42-162-34-225 18-25 22-69 90-69 108 0 3 83 5 185 5 164 0 185-2 185-16zm-4079 69c-175-411-221-514-248-566-8-16-17-42-20-58l-4-30 82 3 81 3 20 50c18 46 116 282 138 330l34 77c14 31 26 62 26 68 0 5 4 18 9 28l26 57a1508 1508 0 0 0 45 97c-1 2 7 21 16 43l17 40 18-44c39-91 51-117 60-133a900 900 0 0 1 70-170c5-10 9-22 9-27s9-30 20-55c11-26 19-47 18-49a2569 2569 0 0 0 103-234l33-83 85 1c48 0 80 3 73 6-6 2-10 8-7 13 7 11-66 180-77 180-5 0-7 4-4 8 3 5-76 197-174 428l-179 419-48 3-48 3-174-408zm759 47v-360h130v720h-130v-360zm332 3l3-358 68-3 67-3v73l24-23c70-67 266-80 314-21 6 9 12 12 12 6 0-5 7-1 14 9 8 10 18 17 22 16 5-1 13 7 19 17 5 11 12 21 15 24 32 32 35 58 38 338l3 282h-141v-255c0-283-3-299-63-335-62-38-146-24-224 39l-33 26v525h-140l2-357zm-326-434a61 61 0 0 1-26-54c0-82 128-103 160-26 31 76-65 134-134 80z" fill="#0a090a"/><path d="M1520 9825v-55h4963c2729 0 4968 4 4975 9 9 5 12 24 10 52l-3 44-4972 3-4973 2v-55zm476-379c-90-34-145-127-153-261-9-137 38-259 119-313 36-23 52-27 114-27 65 0 76 3 111 30 21 18 51 57 68 90 28 57 30 67 30 180 0 104-3 127-23 170-26 55-63 100-103 120-41 22-119 27-163 11zm115-112c59-30 90-163 66-276-9-43-50-96-84-109-37-14-85 14-114 64-21 37-24 55-24 142 0 86 3 105 22 136 36 57 80 71 134 43zm474 117c-47-12-70-27-109-73-45-52-66-120-66-214 0-138 36-230 116-290 33-26 46-29 109-29 98 0 140 28 187 122 31 64 33 73 33 179 0 107-1 113-35 180-27 54-45 74-80 95-49 30-109 41-155 30zm109-132c43-37 56-79 56-179-1-145-75-231-156-181-46 28-68 82-72 179-5 103 15 164 62 193 44 27 70 24 110-12zm1266 135l-72-20-48-15 7-62c3-34 7-64 9-66s26 8 53 22c61 34 158 38 184 9 46-50 7-97-118-146-113-43-135-70-135-162 0-67 21-109 73-148 39-29 161-33 232-9l50 18-3 60c-2 33-5 61-7 63-1 1-26-9-56-23-57-26-110-32-153-15-21 8-26 16-26 44 0 42 6 47 107 85 132 51 166 91 165 193-1 81-32 133-94 157-32 12-134 21-168 15zm540-3c-51-11-96-37-119-70-45-63-51-102-51-322v-209h100v173c1 194 10 250 47 290 36 36 109 39 140 5 43-48 47-66 51-270l4-198h99l-3 228c-3 212-4 230-25 268-31 57-73 90-133 103-56 12-59 12-110 2zm1515 0c-79-21-136-69-174-151-21-46-26-69-26-145 0-200 96-315 265-315 109 1 184 51 232 155 32 70 33 238 2 306-26 55-84 116-130 135-41 17-130 25-169 15zm133-131c99-61 98-290-2-351-66-41-154-13-193 61-30 57-32 165-3 227 35 77 127 106 198 63zm463 129c-53-10-108-52-133-101-28-54-38-136-38-325v-173h110v173c1 194 10 250 47 290 31 32 94 37 132 11 45-32 54-75 59-281l4-193h100l-4 228c-3 209-5 230-25 267-25 47-58 80-93 93-42 16-113 21-159 11zm974 5c-16-3-50-12-74-21l-43-16 4-58c2-32 7-61 10-64s29 6 59 20c96 44 199 28 199-32 0-37-47-74-126-102-38-13-82-32-98-44-87-62-68-220 34-274 54-29 152-31 225-4l50 18-2 58c-1 31-4 59-6 61-1 2-30-8-63-21-73-30-123-32-158-4-54 43-30 70 117 131 48 20 89 45 106 64 28 31 44 90 36 129-2 11-4 30-4 42-1 29-48 83-86 99-35 14-135 24-180 18zm3202-8c-64-18-116-61-152-127-25-47-30-67-33-151-3-72 0-109 12-146 41-121 126-183 250-181 39 0 89 6 111 13l40 12-4 54c-1 30-5 57-7 59s-31-4-63-14c-39-11-75-16-103-12-132 18-175 242-68 349 34 35 42 38 93 38 30 0 71-7 92-16 21-8 41-12 45-7 5 4 10 30 12 57l3 49-39 14c-60 20-136 24-189 9zm-7747 1c0-3 38-76 85-163l157-296 71-138h44c28 0 43 4 42 13 0 6-69 140-153 297l-152 285-47 3c-26 2-47 1-47-1zm302-31c-68-77-45-242 38-276 42-18 100-6 127 25 60 69 50 221-19 269-13 9-43 16-69 16-41 0-51-4-77-34zm108-56c28-28 28-112 0-140-11-11-26-17-33-14-36 13-49 112-21 152 19 27 28 28 54 2zm-1860-129v-209l-30 11c-16 6-31 9-33 7-3-3-8-26-11-52-7-45-6-48 23-63 17-8 41-29 53-45 18-25 29-30 65-30h43v590h-110v-209zm3320-86v-295h133c145 0 193 13 250 68 109 103 109 346 1 456-55 55-95 66-246 66h-138v-295zm270 170c15-8 39-31 52-52 19-32 23-51 23-118 0-135-48-185-177-185h-68v370h70c43 0 82-6 100-15zm1850-170v-295h340v110h-240v120h190v110h-190v139l123 3 122 3 3 53 3 52h-351v-295zm1030 55v-240h-140v-110h390v110h-150v480h-100v-240zm560-55v-295h340v110h-230v120h170v110h-170v250h-110v-295zm430 0v-295h133c106 0 139 3 166 18 50 25 74 63 79 126 6 80-5 122-44 165l-34 38 55 116c30 63 55 118 55 121s-25 6-55 6h-55l-52-105-53-105h-85v210h-110v-295zm249-61c27-34 27-88 1-114-16-16-33-20-80-20h-60v160h59c52 0 62-3 80-26zm201 351l44-142 92-290 47-153h105l16 48 90 283c42 130 76 241 76 247 0 8-20 12-55 12h-54l-21-70-21-70h-165l-23 70-22 70h-55c-30 0-54-2-54-5zm277-257l-22-73-18-60-17 50c-36 104-37 95 15 95 34 0 46-4 42-12zm283-33v-295h109l38 68c20 37 68 118 105 181l68 115v-364h110l-2 293-3 292-45 3-45 3-110-183-110-182-3 182-2 182h-110v-295zm1060 0v-295h350v110h-240v120h190v110h-190v139l123 3 122 3 3 53 3 52h-361v-295zm-5650 60v-45h250v90h-250v-45zm-2456-54c-38-23-54-65-54-143 0-106 41-161 121-161 99 0 153 150 94 262-29 58-103 77-161 42zm97-83c27-51 6-148-32-148-42 0-66 102-37 150 17 27 54 26 69-2zm4072-2075c37-2 96-2 130 0s4 3-68 3c-71 0-99-1-62-3zm-238-1388c0-423 1-595 2-382 2 214 2 560 0 770-1 210-2 36-2-388zm-3894 390a909 909 0 0 1-517-314c-319-386-203-975 230-1171 355-161 792 22 849 357 30 175-64 358-221 431-49 23-70 27-152 27-109 0-167-22-231-86s-72-175-17-252c43-60 147-85 233-57 68 22 121 112 113 192l-4 41 33-38c117-136 57-326-126-396-291-111-601 114-601 435 1 239 176 458 435 543 68 22 98 26 205 26 231 1 436-77 645-247l80-65 67 72c37 40 67 77 68 84 0 18-176 179-255 233-131 89-279 151-443 185-91 19-303 19-391 0z" fill="#f1a01f"/><path d="M4210 8079c-260-66-382-130-526-273a977 977 0 0 1-281-755c22-355 194-635 527-856 100-66 245-145 267-145 7 0 13-4 13-8s10-8 22-9c11-1 24-6 27-11 10-16 258-82 398-107 442-77 789-293 932-579 63-124 76-187 75-351 0-124-4-149-27-220a717 717 0 0 0-587-486c-364-57-734 152-826 466a498 498 0 0 0 70 412 461 461 0 0 0 362 180c167 10 288-53 350-182 51-107 19-240-72-296-42-26-45-24-26 14 9 18 16 56 17 88 0 107-88 199-190 199-131 0-217-86-217-215 0-139 96-234 257-253a353 353 0 0 1 400 264c66 254-99 497-381 559-123 28-385 3-428-40-7-8-16-11-20-8-3 4-6 1-6-5 0-7-9-12-20-12s-23-7-26-15c-4-8-12-15-20-15s-14-4-14-10a1051 1051 0 0 1-180-180l1-16c0-4-4-10-11-14-6-4-12-13-14-21-1-8-7-23-13-34s-11-23-12-27l-2-10-4-18-16-75c-16-77-16-233 1-310 17-72 17-74 20-80l4-12c1-5 5-14 9-20 5-7 6-13 2-13-8 0 43-97 55-105 6-4 8-10 5-15-3-4 2-11 11-14 8-3 12-10 9-16s1-13 9-16c9-3 14-10 11-14s7-15 20-24c14-9 23-20 21-25-3-4 17-30 44-56 28-27 50-45 50-41 0 5 10-3 21-18 12-15 23-25 26-23 2 3 16-6 30-19 15-14 37-27 50-30 13-4 23-9 23-13a1069 1069 0 0 1 781-107 965 965 0 0 1 474 279c103 110 104 111 159 222 134 268 141 617 17 889-28 63-99 180-137 226a1602 1602 0 0 1-714 464c-86 29-294 77-445 103-16 3-83 23-149 45-213 71-372 163-498 289a528 528 0 0 0-90 106c-15 9-36 41-44 66-4 9-10 17-14 17s-13 15-20 33l-26 64c-8 17-14 38-14 48 0 9-4 14-9 11-5-4-7 3-4 14s1 20-4 20c-6 0-8 11-5 25 2 14 0 25-4 25-5 0-8 20-6 45s0 45-4 45c-5 0-9 20-9 45s4 45 9 45c4 0 6 20 4 45s-1 45 2 45c7 0 45 140 43 158 0 6 3 12 7 12 9 0 25 40 22 53-1 4 2 7 8 7a1251 1251 0 0 0 209 222 798 798 0 0 0 885-1l95-62c14-8 31-24 36-35 13-26 68-98 78-102 4-2 7-7 7-12 0-4 10-29 22-56s23-51 23-54l13-45c17-56 15-166-4-238-8-33-32-85-52-116s-40-64-44-73c-4-10-14-18-21-18-8 0-20-7-27-15-27-32-134-86-202-101-76-18-198-15-252 5-15 6-32 9-37 5-5-3-9 0-9 6s-4 8-10 5c-5-3-10-1-10 6s-3 10-6 6c-4-3-15 4-25 16s-18 19-19 15c0-8-50 40-50 48 0 2-12 23-27 46-63 101-25 290 62 312 16 4 23 11 19 18-4 6-3 8 4 4 5-3 12-3 15 1 2 5 2 1-1-7s-5-23-6-32c0-10-4-18-9-18s-7-9-4-20 1-20-4-20-9-9-9-20 4-20 9-20 7-9 4-20 0-20 6-20c5 0 8-6 5-14-7-18 56-89 97-109 20-9 55-14 95-13 53 2 71 7 106 32 83 58 111 168 67 264-27 59-53 86-114 118-66 34-196 42-269 18-63-22-106-44-106-56 0-6-6-10-13-10-8 0-22-9-32-20s-16-20-13-20c4 0-7-14-22-30-31-33-55-93-46-115 2-7 0-15-6-17-14-5-15-151-1-155 6-2 9-12 6-22-6-22 22-91 36-91 6 0 8-6 5-14s5-21 18-30c12-9 18-16 13-16s14-22 42-50c28-27 56-50 62-50s11-4 11-10c0-5 7-10 15-10s15-4 15-8c0-30 192-74 310-73 193 3 326 57 456 186a601 601 0 0 1 188 470c1 129-16 202-73 320a871 871 0 0 1-435 416 848 848 0 0 1-426 94c-91 2-181-1-200-6z" fill="#dc253c"/><path d="M4324 9035c0-99 2-138 3-87 2 51 2 132 0 180-1 48-3 6-3-93zm1030-5260c-88-19-193-66-266-118a858 858 0 0 1-178-175 822 822 0 0 1-127-502c3-63 8-124 10-135l12-50a1878 1878 0 0 1 86-265 1605 1605 0 0 1 209-358c0-4 16-24 36-45l36-37-59-26a1654 1654 0 0 0-288-103c-15-14-181-47-335-68-169-23-769-25-1040-4l-215 16c-431 33-771 2-1010-92a1155 1155 0 0 1-711-771c-30-116-43-275-24-297 15-18 69-20 74-2l20 67c20 67 38 113 82 208 150 324 493 564 881 617l75 11c94 13 332 15 565 5 467-21 1023-10 1204 24l70 10c217 27 552 131 757 234l83 42 47-42c118-103 313-215 497-284 316-118 660-142 977-66 110 26 196 59 315 121 113 58 139 77 243 180a929 929 0 0 1 289 592c10 86 1 155-19 143-5-3-10 1-12 7-4 10-12 10-33 3-25-9-33-23-69-130-108-314-278-496-598-639-114-51-314-81-488-73-274 12-543 100-770 252-144 97-261 210-362 352a1556 1556 0 0 0-209 445c-5 10-14 61-21 113-34 270 80 477 300 545 193 60 342-21 437-236 69-157 72-373 5-533-41-99-87-172-164-261-36-41-66-79-66-83 0-5 24-34 54-64l53-56 35 27c33 25 124 125 175 192 93 120 153 242 189 379 33 126 37 297 10 420-19 88-19 90-66 189a716 716 0 0 1-272 274 688 688 0 0 1-424 47z" fill="#7bb64c"/><path d="M2495 4176a747 747 0 0 1-500-352c-217-342-144-803 173-1106 131-125 278-207 457-255 93-25 115-27 300-28 178 0 210 3 295 24 108 27 229 65 256 80l89 43c39 18 76 38 83 45s20 13 28 13 14 5 14 10c0 6 7 10 15 10s15 5 15 10c0 6 7 10 15 10s15 5 15 10c0 6 6 10 14 10s17 7 20 16c3 8 10 13 15 9 6-3 15 4 21 15s17 20 24 20c8 0 26 16 40 35 15 19 33 35 39 35 13 0 25 13 138 150 210 252 359 589 393 885l6 50-89 43c-93 44-106 48-96 32 3-5 1-10-6-10s-10-11-7-30c2-16 1-31-4-32-5-2-10-20-11-41-1-20-6-37-11-37-4 0-6-9-3-20s1-20-5-20-8-9-5-20 1-20-5-20-8-7-4-15c3-8 1-15-5-15s-9-7-5-15c3-8 1-15-5-15s-9-7-5-15c3-8 1-15-5-15s-9-6-7-12c3-7-2-19-9-27-8-7-12-20-9-28 4-9 2-11-6-7-8 5-9 2-5-9 3-10 3-17-2-17-9 0-47-81-44-92 2-5-2-8-8-8-5 0-8-4-5-9s-1-12-10-15c-8-3-12-10-9-16 3-5 1-10-5-10s-9-4-6-9-1-12-10-15c-8-3-12-10-9-16 3-5 1-10-6-10s-10-3-6-6c3-3-3-15-14-27-10-11-19-27-19-34s-4-13-10-13c-5 0-10-6-10-14s-7-16-15-20c-8-3-15-10-15-17 0-6-55-66-122-133a1260 1260 0 0 0-580-350c-372-107-747-14-946 234l-56 71c-12 15-48 88-67 134-27 68-34 111-34 210 0 89 4 124 24 183 13 41 29 79 35 85 6 7 17 24 23 40 7 15 17 27 23 27a704 704 0 0 0 120 125 533 533 0 0 0 217 85c12 0 23 3 23 8 0 4 25 7 55 7s55-3 55-7c0-5 12-8 28-8 15 0 57-11 95-24 37-13 67-21 67-18s6-2 13-11c6-9 19-17 27-19s23-13 33-26c10-12 22-20 26-17 5 2 16-4 26-15s14-20 9-20c-5-1 1-9 12-19 38-31 67-109 67-181 0-65-22-137-46-152a346 346 0 0 0-93-96c-35-10-44-15-44-23 0-6-4-8-10-4-5 3-1 19 10 38 27 43 27 134 0 186-40 79-112 116-211 109-47-3-66-10-96-35-52-41-81-86-88-137-15-101 39-182 163-244 73-35 80-37 177-37 93 0 105 2 166 32a462 462 0 0 1 249 395c0 133-50 241-164 353a686 686 0 0 1-311 180c-86 22-245 28-330 11z" fill="#efa4a9"/></svg>