<svg version="1" xmlns="http://www.w3.org/2000/svg" width="4880" height="4880" viewBox="0 0 3660.000000 3660.000000"><path d="M365.7 102c-1.4 1.1-3.1 3.7-3.9 5.8-2.2 6.3-1.6 36.3 1.3 70.2 6.8 80.1 38.1 159.8 90.9 231.5 20.3 27.6 54.2 64.8 77.4 85 3.8 3.3 7.4 6.5 8 7 3.8 3.7 22.2 18.5 34.1 27.3 75.9 56.8 168.1 97 257.1 112.2 17.7 3 54.8 7.4 71.4 8.4 5.2.4 13.6.9 18.5 1.2 5 .3 10.8.7 13 .9 24.7 2.5 179.4 2.5 221 .1 3.3-.2 14.8-.7 25.5-1 10.7-.4 22.7-.9 26.5-1.1 3.9-.3 12-.7 18-1 6.1-.3 14.4-.8 18.5-1 4.1-.2 12.7-.7 19-1 6.3-.3 14.9-.8 19-1 4.1-.2 12.7-.7 19-1 6.3-.3 14.4-.8 18-1 3.6-.2 12.4-.7 19.5-1a876 876 0 0 0 18.5-1c3-.2 14.1-.7 24.5-1.1 10.5-.3 21.5-.7 24.5-.9 3-.2 16.5-.6 30-1 13.5-.3 29.2-.8 35-1.1 14.9-.7 139.9-.7 155.5 0 7.2.3 20.7.9 30 1.2 9.4.3 18.8.7 21 .9 2.2.1 10.3.5 18 .9 7.7.4 16.3.9 19 1.1 2.8.3 13.6 1.2 24 2 22.1 1.8 28.3 2.4 61 6.1 2.8.3 14.5 1.9 26 3.5 103.6 14.5 193.1 39.9 279.1 79.4 1.6.8 6 2.8 9.8 4.4 4.7 2.2 6.5 3.5 6 4.3-.8 1.3-15.5 19.9-16.4 20.8-1.8 1.7-25 31.3-31.7 40.5-38.9 53.1-84.3 142.5-112.4 221.3-13.6 38-20.7 68.7-24.4 105.7-.4 3.3-.8 7.3-1 9-.9 7.2-1.8 31.4-1.8 46.8.1 67.7 11.9 120.4 39.8 178.2 41.2 85.4 108.2 142.3 203 172.4 30.2 9.6 56 13.9 87 14.6 55.7 1.2 107.7-12.8 157-42.2 63.1-37.6 104.1-92.2 130.4-173.3 41.1-127.1 17.1-264.3-67.2-384.9-20.4-29.1-36.6-47.8-96.8-111.6-3.7-3.8-8-8.6-9.8-10.5l-3.1-3.4-2.7 2.5c-1.6 1.5-5.7 5.3-9.3 8.5-3.5 3.2-10.7 10-16 15-5.2 5.1-12.4 11.9-16 15.2l-6.4 6 5.5 7.3c7.2 9.5 29.6 38.9 31.2 40.9.7.8 6 7.8 11.8 15.5 60 79.6 79.2 133.6 78.3 221-.7 78.4-15.9 138.6-46.4 185-45.7 69.3-119 91.4-199.8 60.1-59.4-23-101.6-69.1-120.5-131.6-15.4-51.3-14.9-119.9 1.5-187 38-156.1 156-305.9 315.3-400.2 23.4-13.8 62.2-33.8 77.5-39.8 2.6-1 6.7-2.8 9.1-3.9 8.7-4 37.6-14.9 49.1-18.5 24.2-7.5 54.4-14.3 85-19.1 16.9-2.6 18.9-2.9 27.3-4 8.4-1.1 10.7-1.3 18-2 3.9-.4 7.9-.8 9-1 1.1-.1 6.5-.6 12-1s11.1-.8 12.5-1.1c5-.8 41.1-1.9 63-1.9 21.8 0 49.2.9 59.5 2 2.8.3 9.5 1 15 1.6 24.3 2.5 52.6 8.1 78.6 15.7 89.5 26.2 169.8 77.4 229.2 146.2 4.9 5.8 9.3 10.7 9.6 11 1.8 1.4 19.8 26.1 26.8 36.5 11.8 17.8 20.4 32.6 30.9 53.6 5.2 10.4 9.4 19 9.4 19.3 0 .2 2.2 5.1 4.9 10.8 12.8 26.8 25.1 60 25.1 67.4 0 3.4 3.6 12 6.8 16.2 8 10.7 18.1 16.7 26.9 16 6.2-.5 8.8-2.5 11.5-8.6 2.8-6.3 3.8-14.1 3.8-29.7s-.3-20.2-3-39c-8.9-61.3-27.8-117-57.7-169.9-35.9-63.4-92.6-122.4-157.3-163.5-81.1-51.6-178.1-83-287-93.1-36.2-3.3-105.6-3.5-140.5-.4-31.1 2.8-66.3 7.8-91.5 12.9-9.6 2-18.6 3.9-20 4.1-6.5 1.3-32.2 8-47.5 12.4-86.2 24.9-180 70.2-260 125.5-7.1 5-14.6 10.1-16.7 11.5-2.1 1.4-11.1 7.9-20 14.5-16.1 11.9-16.3 12-22 12.2-12.5.3-33.6-6.5-69.8-22.7-46.4-20.7-73-31.4-107.5-43.3-34.2-11.8-72.4-23.3-100.5-30.1-3.6-.8-12.1-2.9-19-4.6-29.5-7.2-84.3-18.2-124.5-24.9-17.1-2.9-46.8-6.4-63.5-7.6-4.7-.3-10.1-.8-12-1-3.3-.4-12.6-.9-34.5-2-69.8-3.4-133.3-4.2-406-5-96.8-.3-190.8-.8-209-1-75.1-1.1-113.9-2-131.5-3-4.7-.3-14.3-.7-21.5-1-7.1-.4-17-1-22-1.5-4.9-.5-12.1-1.2-16-1.5-37.1-3.2-83.9-17.4-133.9-40.6-79.1-36.7-148.6-90.3-206.4-159.3-12.3-14.6-31-40.7-41.5-57.8-25.5-41.4-41.3-77.1-55.7-126.3-6.6-22.5-14.5-37.1-22.1-41.1-4-2-10.1-1.8-13.2.6z"/><path d="M1004.8 909.5c-.2.2-6.1.6-13.3 1-7.1.4-13.7.9-14.6 1-.9.2-5.2.6-9.5 1s-8.7.9-9.8 1.1c-1 .2-4.4.6-7.5 1-3.1.3-6.5.8-7.6 1-1.1.3-3.8.7-6 1-25.3 3.5-60.4 13.2-93.5 25.7-27 10.2-63.8 29.3-91 47.2-15.4 10.1-40.2 29.1-54 41.3-29.4 26-58.4 59.3-80.7 92.7-13.4 20-30.6 51.4-39 71-13.1 30.8-24.3 66.5-28.8 92.5-1.1 6.3-3.5 22-4 26.5-.4 2.7-.8 6.1-1 7.5-2.3 15.2-2.4 68.3-.1 81 .3 1.4.7 5.2 1 8.5.9 8.8 4.2 27.6 7.7 42.5 10.8 46.4 37 101.9 68.8 145.5 40 54.9 88 92.5 152.6 119.5 9.6 4 28.1 10.1 34.5 11.4 1.4.3 6.1 1.2 10.4 2.1 11.3 2.2 12.6 2.4 19.2 3 3.2.4 7.7.8 9.9 1.1 23.5 2.5 69.9 2.4 93-.1 23.8-2.7 24.6-2.8 40.5-5.6 27-4.7 47.8-11.3 68.3-21.5 44.1-21.9 78.7-49 106.4-83.4 11.2-14 27-39.2 31.3-50 .7-1.9 1.7-4 2.1-4.5 1.3-1.9 7.6-19 10.2-28 7.5-25.6 9.6-41.6 9.1-69.5-.1-10.2-.5-19.6-.8-21-.2-1.4-.7-4.8-1.1-7.5-.3-2.8-1-6.8-1.5-9s-1.2-5.5-1.5-7.4c-2-11.7-8.3-29.6-15.6-44.7-4.4-8.9-18.5-31.7-20.7-33.4-.4-.3-2.3-2.5-4.3-5-8.5-10.6-19.8-21.1-34.5-32-18.4-13.7-37.4-23.6-61.4-31.9-12-4.1-16.1-5.1-27.5-6.7-9.3-1.3-35.8-1.3-39.5 0-.8.3-3.4.7-5.8 1-2.4.3-6 1-8 1.5-2 .6-4.8 1.2-6.2 1.5-18.2 3.6-48.4 17.5-67.4 31.1-19.2 13.7-40.5 34.7-47.4 46.8-5 8.8-6.2 21.9-3.6 41.2 2.9 22.6 8 37.4 18 53.1 4.2 6.5 18.3 21.2 23.4 24.2 8 4.9 18.9 10 24.1 11.5 12.9 3.8 31.4 4.1 45 .9 8.1-2 26.5-9.2 27.8-10.9.3-.4 2.2-1.7 4.1-2.7 12.3-6.8 35-27.7 39.3-36.2 5.6-11.2 6.3-25.6 3.1-62.4-.8-8.8-.4-32.6.6-37.9.5-3 1-5.5 1-5.6 0-1.1 3.6-1.3 5.3-.3 3 1.5 16.7 12 20.4 15.5 20.2 19.2 28.7 28.2 35.8 37.7 7.9 10.6 15.5 24.6 19.6 36.6 1.7 4.8 2.6 8.1 5.5 20.6.3 1.6.8 9.7.9 17.9.3 14.1 0 17.1-3.1 32.3-2.3 11.1-12.4 34.2-20.2 46.2-12.5 19.1-24.8 32.2-47.6 50.7-1.1.9-5.8 4.2-10.6 7.4-33.9 22.6-72.9 35.9-115.6 39.4-19.9 1.7-50.2 0-64.4-3.5-1.9-.5-4.8-1.1-6.5-1.3-6.1-.9-27.1-6.9-37.9-10.9-21.8-7.9-51.2-24.3-67.6-37.5-11.6-9.5-22-19.2-32.5-30.7-3.1-3.3-14.8-18.2-16.2-20.7-1-1.6-2.1-2.9-2.5-2.9-.4 0-.8-.4-.8-.9s-1.7-3.6-3.8-6.8c-10.6-16-21.6-39.5-28.1-59.7-2.3-7.1-4.3-13.8-4.5-15-.2-1.2-1.1-4.8-1.9-8.1-2.2-8.4-5.5-29.3-6.3-40-1.3-16-.7-49.1 1-58.1.2-1 .7-3.9 1-6.4 3.4-24.9 9.5-47.5 20.3-75 2.8-7.3 14.9-32.1 18.9-39 21.1-36.1 42.3-62.6 70.8-88.5 3.1-2.9 15.6-13.3 18.5-15.5 1.8-1.4 3.8-3 4.4-3.6 2.5-2.3 23.7-16.3 32.2-21.4 24.7-14.6 49.4-25.6 78-34.6 11.7-3.7 25.6-7.5 32.5-8.9.8-.2 3.3-.8 5.5-1.3 2.2-.6 5.6-1.3 7.5-1.5 1.9-.3 5.8-1 8.5-1.5 2.8-.6 7.7-1.4 11-1.7 3.3-.4 6.2-.9 6.5-1 .3-.2 3.4-.6 7-.9 3.6-.4 8.1-.9 10-1.1 19.8-2.3 70.5-2.4 89.6 0 1.6.2 6.1.6 9.9 1 13.3 1.2 49.4 6.8 57 8.9.6.2 2.8.6 5 1 9.6 1.9 30.1 7.2 49 12.8 69.5 20.5 138 57 200 106.7 9.5 7.6 17.3 14 19.5 16.1.9.8 4.7 4.2 8.5 7.5 10.2 8.9 26.8 25 39.5 38.2 11.2 11.6 18.3 19.4 25 27.2 3 3.5 6 6.9 6.5 7.5 2.4 2.6 14.7 18 22.1 27.6 22.5 29.4 44.5 62.9 59.1 90 5.3 9.8 26.3 51.6 26.3 52.3 0 .3 2.4 5.7 5.4 11.9 2.9 6.2 7.2 15.8 9.6 21.3 2.3 5.5 5.5 13.1 7.2 17 4.5 10.3 4.6 10.5 6.9 16.5 11.2 29 21 56.9 26.7 76.5 3.2 10.8 6 25.2 6.7 34 1.5 19.6 2.1 23.1 4.8 26.7 5.1 6.9 17.1 5 47.7-7.5.8-.3 9.8-4 20-8 16.8-6.8 18.5-7.7 18.4-9.8 0-2.5-1.1-13.1-1.9-18.9-1-7.5-1.5-11.7-2-16.5-1.2-10.5-2.9-21.1-4.5-28.5-.5-2.5-1.2-5.6-1.4-7-.8-4.8-9.7-40.6-12.7-51-5-17.9-6-21.1-10.6-36-5.7-18.4-12.5-38.1-17-49-1.9-4.7-3.6-9.2-3.8-10-.3-1.4-6.3-15.4-14.6-34-10.7-24.3-34.7-68.5-52.5-96.7-7-11.1-28.2-42.5-31.6-46.8-.4-.6-5.2-6.8-10.5-13.9-16.7-22.1-35.5-44.4-54.3-64.6-13.5-14.4-44.7-45.2-52.2-51.5-1.8-1.5-5.3-4.6-7.8-6.9-23.1-21.2-65.8-53.1-96.6-72.2-6.1-3.8-11.9-7.4-13-8.1-13.2-8.2-62.5-34.3-64.8-34.3-.2 0-3.3-1.3-6.8-2.9-15.3-7.1-54.2-21-73.2-26.2-13.2-3.7-41.1-10.7-44.1-11.2-1.6-.3-7.5-1.5-13-2.6-9-1.9-17.4-3.4-26-4.7-1.6-.3-5.2-.9-8-1.4-2.7-.5-6.9-1.2-9.2-1.5-2.4-.3-6.2-.7-8.5-1-2.4-.3-5.4-.8-6.8-1-2.2-.4-9.9-1.2-19.5-2-4.8-.4-19.5-1.7-25-2.1-6.1-.6-73.2-1.3-73.7-.9zM1999.8 1661.5c-.2.2-4.1.6-8.8.9-4.7.4-10 .9-11.7 1.2-1.8.2-4.8.6-6.5.8-8.7 1.2-20.1 2.9-27.8 4.2-4.7.9-9.4 1.7-10.5 1.8-5.8.9-11.5 2.2-26 5.8-8.8 2.1-17.1 4.2-18.4 4.4-1.4.3-2.8.7-3.3 1-.4.3-1.8.7-3 .9-6.5 1.3-39.6 12.3-57.3 19.2-47.5 18.3-92.7 43.4-129.2 72-23.4 18.2-47.6 43.7-66 69.3-24.5 34.1-57 97.7-67 131-7.4 24.9-8.8 38.9-8.8 90.5 0 37.3.7 53.7 2.9 66 .3 1.6.8 4.4 1.1 6.1 2.3 14.2 16.5 54.4 25.7 72.9 4.4 8.8 12 21.9 22.1 38.1 14.6 23.3 33.2 44.7 54.3 62.4 32.7 27.5 94.1 57.4 130.4 63.4 1.9.3 6.2 1 9.5 1.6 31.1 5.4 73.3 6 107.5 1.5 5.6-.8 10.6-1.5 13.4-2.1 1.1-.2 3.7-.7 5.6-1 6.3-1 20.3-4.4 29-7 8.8-2.6 30.7-11 32.6-12.6.6-.4 4-2.3 7.5-4 6.6-3.3 23.5-13.7 29-17.9 19-14.6 32.9-27.8 45.1-43 21.4-26.7 36.1-56.8 42.8-87.8 4-18.3 4.8-26.6 4.5-45.6-.2-9.4-.6-18.1-.9-19.5-.2-1.4-.7-4.1-1-6-1-6.4-1.7-9.4-3.7-17-1.1-4.1-2.1-8-2.2-8.5-.2-.6-.5-1.5-.8-2-.4-.6-1.2-2.8-1.9-5-2.6-8-9.6-21.8-16.9-33-8.5-13.2-21.9-27.7-36.6-39.7-16.7-13.6-28.7-20.4-44.5-25.2-7.6-2.3-36.2-7.3-52.5-9.2-12.8-1.5-33.3-.6-52.5 2.2-20.1 3-48.1 17.7-64.5 33.9-9.5 9.4-14.4 16.2-21.5 30.2-7.1 13.9-10.2 21.7-13.3 33.8-3.4 13.3-2.6 23.6 3 40.3 5.5 16.6 11.8 28.6 20.8 39.7 28.5 34.9 70.7 43.5 112 22.8 23.9-12.1 38.2-29.6 44.4-54.3 4.8-19.5 6.2-37.5 3.9-50-2.3-12.3-.8-20.6 4.5-25.3 4.3-3.7 8.3-1.5 24.5 13.8 6.7 6.3 9 9.3 12.7 16.6 5.8 11.7 10.6 25 13.1 36.9.3 1.4.9 4.3 1.4 6.5 1.2 5.7 2.3 17.1 2.3 23.5-.5 45.8-30.6 87.5-80.8 112-17.4 8.5-41.5 16.2-58.2 18.5-2.1.3-4.7.7-5.8 1-13.5 2.8-52.5 2.2-67.5-1-.3-.1-2.5-.5-5-.9-9.2-1.6-27.6-6.6-33.5-9.1-1.6-.7-6.6-2.7-11-4.5-18-7.1-45.6-23.4-60.1-35.5-30.9-25.8-50.8-56.9-62.9-98-4.2-14.3-8.3-34.8-10-50.1-.2-2.1-.7-5.9-1-8.4-1.4-11.1-1.3-38.7.1-46.5 4.3-24 8.4-36.2 20.9-62 18.5-38.1 34.8-61.7 60.9-88.3 5.5-5.7 12.7-12.7 16-15.5 3.2-2.9 6.4-5.7 7-6.2 5.4-5 24.8-18.9 38.6-27.8 31.4-20.2 80.2-39.6 118.5-47.3 1.1-.2 3.1-.6 4.5-.9 1.4-.2 4.1-.7 6-1 1.9-.3 4.2-.8 5-1 .8-.2 3.5-.7 6-1.1 2.5-.3 5.6-.9 7-1.1 4.5-.8 84.1-1 98.2-.2 7.5.4 16.1 1.2 19 1.8 2.9.6 8.9 1.8 13.3 2.7 4.4.9 8.7 1.7 9.6 1.9.9.2 6.9 1.8 13.5 3.5 16.8 4.5 30.6 9.2 46.9 15.9 1.1.5 5.9 2.7 10.8 5 4.8 2.2 9 4.1 9.2 4.1 1.5 0 27.5 15.2 38.4 22.5 14.3 9.5 32.3 23.7 42.5 33.4 15 14.4 30.6 30.7 38.2 40.1 1.6 1.9 3.7 4.4 4.7 5.5 3.4 3.7 16.5 22 20.8 29 6.6 10.9 16.5 31.2 19.8 40.9 3.5 9.9 8.6 28.9 9.6 35.6.4 2.5.8 4.7 1 5 .2.3.6 3.2 1 6.4.3 3.3.8 6.2 1 6.5.1.3.6 4 1 8.1s.8 9.1 1 11c2.7 27.8 2.7 102.9 0 128-.8 7-2.6 21.2-3.1 24.2-.2 1.6-.6 4.3-.9 6-6 37.5-20.6 72.7-42.8 103.3-4.7 6.4-20.3 26.3-21.7 27.5-.3.3-3.9 4.3-8 9-15.6 17.8-40.8 43.1-56.7 57.1-12.2 10.6-34.6 27.8-49.3 37.6-11.4 7.6-29.9 19.3-30.5 19.3-.2 0-4.3 2.3-9.2 5.1-45.6 26.4-111 52-174.8 68.4-9.3 2.4-18.1 4.6-19.5 4.9-1.4.3-3.4.7-4.5 1-1.1.2-14.8 3.2-30.5 6.6-15.7 3.3-34.3 7.5-41.5 9.1-7.1 1.7-13.7 3.2-14.6 3.4-4.7.9-51.2 13.2-61.4 16.2-6.6 1.9-13.3 3.8-15 4.3-36.6 10.1-93 30.7-131.5 48-36.3 16.3-84.3 43.1-110.5 61.7-2.7 1.9-8.6 6-13 9.1-7.2 5-35.3 26.7-36.5 28.1-.3.3-3.4 3.1-7 6.1-20.4 17.2-47.7 44.1-66 64.9-3.5 4-11.9 14.1-18.5 22.5-54.2 67.9-83.6 131.9-97.1 211.4-2.7 15.8-3 18-3.9 28.7-.4 3.8-.8 7.6-1 8.5-2.6 13.4-2.6 98.9-.1 118 .2 1.4.7 5.2 1.1 8.5 4.8 41.4 19 84.6 46.3 140.6 16.5 33.7 34.4 61.6 58.3 90.4 10.3 12.4 37.4 39.5 49.4 49.5 5 4.1 9.2 7.7 9.5 8 1.2 1.3 24.1 18.1 31 22.7 26.1 17.4 54.6 32.6 88.5 47.3 7.3 3.2 27.9 10.9 37.7 14.1 18.3 6 30.5 8.8 50.3 11.5 4.6.6 15.9 1.4 27.5 2 5.8.3 11.6.7 12.9.9 15.5 2.7 79.6 2.7 101.6-.1 2.2-.2 9.2-1.1 15.5-1.9 11.2-1.4 15.6-1.8 31-3 9.1-.7 15.8-1.4 18.6-1.9 1.2-.2 4.5-.7 7.4-1.1 6.2-.8 6-.7 17-3.4 30.5-7.3 79.5-30.7 120.8-57.7 11.9-7.8 36.4-25.4 38.2-27.4.3-.3 3-2.5 6-5s6.4-5.3 7.4-6.2c1.1-1 5-4.3 8.7-7.5 13.8-11.7 44.5-43.8 54.9-57.3 1.9-2.5 3.7-4.7 4-5 3.2-2.7 22-29.9 28.7-41.5 11.8-20.4 20.9-39 29.3-60 4.2-10.6 8.4-24.3 9.6-31.3.2-1.5.9-5 1.4-7.7 2.7-14.1 3.5-30.9 3.5-71 0-59.1-1.8-73.8-13.8-113-8.4-27.3-13.4-37.3-32.8-66.6-24.2-36.4-39.8-53.8-65.8-73.2-17.2-12.8-38.2-24.7-59.7-33.7-5.4-2.3-11.8-5-14.1-6.1-2.4-1-5.1-1.9-6.1-1.9s-2.2-.4-2.7-.9c-2.9-2.6-47.8-15.5-61.5-17.6-2.5-.4-5.2-.9-6-1-25.1-4.3-59.5-3.9-88.4 1.1-18.1 3.1-53.1 13.7-73.6 22.3-25.7 10.8-59.3 34.3-78 54.6-3 3.3-6 6.4-6.6 7-6.3 6.1-21.9 30-27.7 42.5-6.3 13.5-13.6 35.6-15.3 46.5-.4 2.7-.9 5.7-1.1 6.5-2.5 11.4-2.4 44 .3 60 1.7 10.1 6.4 27.5 9.4 34.5 13.4 31.5 27 50.4 51.5 71.2 18.5 15.9 27.5 20.9 50.1 27.6 27.5 8.2 40.2 10.1 67.9 10.1 18.7 0 22-.2 30-2.3 10-2.6 20.6-7.8 29.2-14.3 3.2-2.4 8.5-6.2 11.7-8.3 8-5.4 16.3-13.1 24.4-22.8 3.7-4.4 8.1-9.5 9.7-11.1 5.2-5.2 11.3-13.5 14-19 5.6-11.4 5.7-28.6.4-53.9-6.3-30.1-17.4-48.2-38-62.2-24.3-16.4-53-20.4-80.9-11.2-13 4.2-29.7 15-37.9 24.3-19 21.6-29.1 55.9-24.5 83 .6 3.9 3 11.4 5.3 16.7 4.4 10.5 4.7 11.8 3 16.6-1.6 4.5-4.8 5-10.6 1.5-11-6.3-29.5-23.3-35.8-32.9-6.5-9.9-12.7-26.6-14.1-38-.2-1.7-.6-5-.9-7.5-1.1-7.9-.7-23.6.9-35.5 2.9-22.1 12.7-48.3 24.9-66.6 9.8-14.8 25.7-30.1 39.2-37.9 22.1-12.6 54.1-22.4 81.5-24.9 10-.9 45.7-.7 50 .3 1.4.3 4.5.8 7 1.1 7.3.8 26.8 5.2 37 8.3 37 11.5 70.3 31 95.9 56.1 12.5 12.2 18.1 18.9 27.3 32.6 12.7 18.8 22.9 42.9 27.2 64.1 2.6 12.5 2.6 12.7 3 15.9.3 1.6 1 7 1.7 12 2.1 15.1 1.8 57.4-.6 72-.3 1.6-.7 4.1-.9 5.5-.5 3-.9 4.9-3.6 16.5-12.4 53-43.6 102.6-89 141.6-4.1 3.5-7.7 6.6-8 6.9-3.6 4-29.7 22.5-44.5 31.5-40 24.4-77.7 39-113.6 44-31.3 4.3-129.5 3.1-167.4-2-1.1-.1-4.7-.6-8-1s-7.6-1.1-9.5-1.5c-1.9-.5-5.1-1.1-7-1.4-8.7-1.3-26.1-6.3-42-12.1-6.3-2.3-28.2-13.4-35.8-18.1-9-5.6-28.1-19.7-39.2-28.9-11.2-9.4-46.5-44.1-56.5-55.6-33.8-39-63.1-104.5-70.1-156.6-.3-2.6-.8-5-.9-5.4-.2-.3-.7-3.9-1.1-8-.3-4-.8-7.6-.9-7.9-.7-1.1-1.8-24.9-1.8-36 0-10.9 1-31.3 1.8-36.2.2-1.3.6-5 1-8.3.4-3.2.8-6.7 1-7.6.2-.9.6-3.4.9-5.5.6-3.3 1.8-10 4.2-22.4 3.9-19.7 11.4-46.9 16.5-59.7 1.7-4.3 3.2-8.3 3.4-8.8.8-3.6 11.6-25.4 17.7-35.9 9.1-15.6 24-36 37.7-51.6 3.6-4.1 7.1-8 7.6-8.6 2.9-3.3 33.2-33.9 39.6-39.9 21.6-20.3 44.1-38.5 64.8-52.4 31.2-21 77.4-44.7 121-62.1 8.8-3.5 44.5-15.7 48-16.4.9-.2 2.3-.6 3.1-.9 1.4-.6 29.9-8.5 33-9.2l24-6c.8-.2 4.9-1.1 9-2 4.1-.9 8.2-1.8 9-2 4.5-1.1 29.1-6.4 32.1-6.9 1.8-.3 8.6-1.6 14.9-3 6.3-1.3 12.9-2.7 14.5-2.9 4.7-.8 21.6-4.5 25.5-5.6 1.9-.6 4.6-1.2 6-1.5 13.8-2.4 66.5-17.1 91-25.3 15.6-5.2 33.6-11.5 36.5-12.8 1.7-.7 9.1-3.6 16.5-6.5 25-9.7 35.4-14.3 63.5-28 18.4-9 34.8-17.6 43.5-22.9 1.9-1.1 4.2-2.4 5-2.8 6.9-3.2 48.3-29.9 62-39.9 2.5-1.8 6.5-4.8 9-6.6 31.8-23.4 68.5-57.3 95.5-88.2 3.3-3.8 6.5-7.4 7-8 2.4-2.7 9.4-11.6 13.5-17.1 2.5-3.3 5.3-6.9 6.3-8 3.2-3.5 30.3-44.6 36.2-55 10.2-17.7 18.3-34.8 33.2-69.5.8-1.9 2-4.9 2.8-6.5 4.2-9.7 12-32.8 13.8-41.5.3-1.4 1.2-5.4 2.1-9 1.5-6.7 1.7-8.2 3.6-21 1.6-11.1 1.9-13.9 3.5-30.5 2.9-31.6 2.7-89.7-.5-118-3.3-29.3-17.2-88.8-24.5-105.3-.8-1.8-1.5-3.7-1.5-4.2 0-4-17.3-43-27.3-61.5-11.2-21-30.1-49.7-41.1-62.6-1.7-2-4.5-5.3-6.2-7.5-7.5-9.3-11.7-13.8-27.3-29.4-23.1-23-40.9-37.6-68.1-55.7-24.5-16.4-42.6-26.1-77.5-41.9-6.2-2.7-37.3-15.2-45.5-18.2-12.6-4.6-19.2-6.3-50-12.8-1.3-.3-6-1.3-10.5-2.4-18-4.1-36.7-7.7-50.5-9.5-2.5-.3-6.3-.8-8.5-1.1-4-.6-37.2-1.3-37.7-.9z"/><path d="M1083.8 1880.5c-.1.1-4.6.6-9.8.9-21.4 1.4-38.1 3.7-59.3 8.2-44.7 9.4-83.6 29.2-121.7 61.9-62.5 53.6-105.5 132.2-117 214-.6 4.4-1.3 9.1-1.6 10.5-.5 3.4-1.8 27.9-1.8 36.5 0 8.7 1.3 34.1 1.9 35.8.2.6.6 3.4.9 6.2 1 9.7 7.8 43.1 10.7 52.5.5 1.9 1.2 4.6 1.5 6 1.1 5.4 9.8 30.7 14.4 42 18.5 45 46.4 85.3 87.5 126.5 56.9 57 140.6 103.8 209 117 41.9 8.1 86.5 10.1 131.5 6.1 9.4-.9 31-3.5 33-4.1.8-.2 3.5-.7 6-1 18.4-2.5 59.3-12.4 84.5-20.5 33.6-10.9 78.5-30.3 101.3-43.9 2.9-1.7 5.5-3.1 5.7-3.1.9 0 24.9-14.8 36-22.3 18-12.1 60.2-43.9 64.5-48.7.3-.3 4.1-3.6 8.5-7.5 24.2-20.9 40.5-39.7 40.5-46.6 0-6.3-13.5-25-31.4-43.7-6.2-6.4-13.5-14.1-16.3-17.1l-5.2-5.3-33.8 23.9c-18.6 13.2-38.5 27.1-44.3 31-37.4 24.9-83.2 47.9-122.9 61.7-11.1 3.9-30.8 10.1-35.1 11.1-.8.2-6.2 1.5-11.9 3-10.2 2.5-31.2 6.8-40.1 8-2.5.3-5.6.8-7 1-1.4.3-5.2.7-8.5 1-3.3.4-7.1.8-8.5 1-10.9 1.6-48.8 2.3-64 1.1-54.3-4.3-102.2-18.8-142.5-43.1-54.2-32.6-99.1-85.6-121.2-143-17.2-44.5-21.3-95.7-11.2-140 11.3-49.5 38.4-95.8 72.8-124.3 26.3-21.9 64.9-38.7 104.6-45.7 22.7-4 51.7-3.9 72 .2 1.1.2 4.3.8 7 1.3 8.5 1.7 22.5 6.1 32 10.1 42.8 17.9 72.5 48.8 82.1 85.4 6.5 24.6 1.7 61.6-12.3 94.7-7 16.9-13.9 26.4-21.1 29.5-7.4 3.1-11.4-4.8-12.7-25.3-1.2-18.7-2.2-23.6-7.5-34.9-13.9-30-46.1-48.9-81.4-47.9-25.9.7-47.4 11.8-64.9 33.6-17.7 22-22.1 48.5-12.1 73.5 14.3 35.8 55.7 63.2 106.9 70.8 9.4 1.4 34.6 1.7 44 .6 23-2.7 44.2-10.2 63.7-22.5 11.8-7.3 16.5-11.2 28.3-23s13.6-14 22-26.6c14.8-22.2 25.1-48.3 30-76.5 2.6-15.3 2.7-54.1.1-68.5-3.8-21.8-9.8-41.1-15.6-51-1.4-2.5-2.9-5.2-3.2-6-.8-2.1-11-16.2-17.3-24-7.2-8.8-24.2-26.1-34-34.6-37.8-32.7-77-53.7-112-59.9-9.1-1.6-21.7-3.5-27-4-3.3-.3-8-.8-10.5-1.1-5-.6-55.6-1.4-56.2-.9z"/></svg>