<svg version="1" xmlns="http://www.w3.org/2000/svg" width="200" height="200" viewBox="0 0 2000 2000">
  <path fill="#75001D" d="M570 1985c-17-20-4-68 26-96 24-22 34-24 165-27l139-4-2-276-3-275-61-13c-143-29-265-96-380-209-130-129-203-277-225-462-18-147 17-352 92-543l32-80h1294l36 93c76 199 107 387 87 534-24 187-95 330-224 458-115 113-237 180-380 209l-61 13-3 275-2 276 139 4c131 3 141 5 165 27 30 28 43 76 26 96-18 22-842 22-860 0zm421-851c-212-57-405-261-437-464l-7-40h1053l6-26c17-66-25-325-67-418l-12-26H472l-16 41c-55 136-78 338-52 458 59 279 312 485 601 489 40 1 40 1-14-14z"/>
</svg>
